<svg xmlns="http://www.w3.org/2000/svg" width="102.363" height="32" viewBox="0 0 27.084 8.467"><rect width="8.467" height="8.467" rx="1.058" ry="1.058" style="fill:#000;fill-opacity:.15000001;stroke-width:.264999;stroke-linecap:square"/><path fill="#575e75" fill-rule="evenodd" d="M16 4.353v2.499a.35.35 0 0 1-.353.353H14.9c-.141 0-.283-.085-.325-.212l-.367-.875H11.06v8.174l.861.324c.141.057.24.184.24.34v.691c0 .198-.17.353-.353.353h-3.6a.359.359 0 0 1-.353-.353v-.692c0-.155.099-.282.226-.339l.861-.324V6.118H5.807l-.367.875a.357.357 0 0 1-.325.212h-.762A.359.359 0 0 1 4 6.852v-2.5C4 4.156 4.17 4 4.353 4h11.294a.35.35 0 0 1 .353.353" style="fill:#fff;fill-opacity:1" transform="translate(-.176 -.176) scale(.44097)"/><g aria-label="B3 beta" style="font-size:6.87917px;font-family:Calibri;-inkscape-font-specification:Calibri;fill:#fff;stroke-width:1.05833;stroke-linecap:square;fill-opacity:1"><path d="M7.646 6.742V1.623h2.261q.4 0 .702.105.306.1.514.309.175.168.272.396.097.228.097.517 0 .407-.221.672-.222.265-.635.386v.02q.477.111.766.427.292.312.292.81 0 .322-.107.577-.108.256-.313.45-.225.219-.54.336-.316.114-.736.114zm.827-.698h1.46q.243 0 .417-.06.178-.061.296-.179.1-.097.158-.235.057-.14.057-.312 0-.282-.124-.47-.125-.192-.343-.286-.215-.094-.494-.094H8.473Zm0-2.27h1.316q.414 0 .645-.196.236-.194.236-.554 0-.228-.098-.386-.097-.161-.279-.242-.181-.084-.436-.084H8.473ZM14.102 6.843q-.574 0-1.02-.198-.447-.198-.706-.578-.255-.383-.262-.923h.759q.01.329.151.57.145.24.41.37.265.131.642.131.309 0 .544-.104.235-.104.362-.306.131-.205.131-.51 0-.279-.134-.467-.13-.188-.39-.286-.255-.097-.624-.097h-.306V3.86h.296q.336 0 .564-.087.228-.09.346-.258.117-.172.117-.41 0-.235-.124-.403-.124-.172-.336-.262-.211-.094-.48-.094-.326 0-.554.13-.225.128-.346.347-.118.215-.125.487h-.749q.007-.454.222-.807.215-.352.611-.554.4-.205.961-.205.477 0 .86.162.383.16.605.463.221.302.221.726 0 .4-.225.641-.225.242-.59.366v.017q.496.134.738.447.242.312.242.79 0 .362-.141.64-.138.28-.386.471-.249.188-.578.282-.33.094-.706.094z" style="font-weight:500;font-family:&quot;Neue Haas Grotesk Text Pro&quot;;-inkscape-font-specification:&quot;Neue Haas Grotesk Text Pro Medium&quot;;fill:#fff;fill-opacity:1"/><path d="M19.526 6.804q-.225 0-.407-.097-.182-.099-.279-.306h-.008v.341h-.641v-3.15h.666v.682q0 .143-.009.282l-.012.24h.012q.077-.116.174-.2.097-.084.22-.13.123-.047.28-.047.292 0 .509.155.219.153.339.422.122.269.122.618 0 .368-.12.637-.12.266-.337.41-.217.143-.509.143zm-.177-.533q.155 0 .258-.082.103-.083.155-.232.052-.149.052-.347 0-.205-.054-.36-.052-.155-.155-.242-.103-.087-.26-.087-.174 0-.288.091-.111.091-.167.248-.054.155-.054.354 0 .192.06.34.062.15.176.235.115.082.277.082zM21.906 6.802q-.368 0-.637-.157-.267-.157-.411-.425-.143-.271-.143-.608 0-.34.147-.608.146-.27.407-.428.26-.157.601-.157.242 0 .439.077.196.074.337.21.19.184.279.461.088.277.084.61h-1.64q.02.17.086.292.068.12.182.186.116.064.277.064.155 0 .256-.058t.155-.161h.643q-.056.198-.196.357-.14.16-.36.252-.217.093-.506.093zm-.534-1.41h.961q-.01-.156-.072-.268-.06-.114-.16-.174-.098-.062-.23-.062-.152 0-.255.062-.103.062-.163.176-.06.112-.08.267zM24.225 6.767q-.211 0-.372-.053-.16-.054-.248-.184-.09-.13-.09-.36V4.897h-.342v-.428h.343v-.726h.655v.726h.444v.428h-.444v1.128q0 .126.066.172.068.045.188.045l.077-.002.076-.006h.033v.5q-.053.008-.153.02-.099.013-.233.013zM25.67 6.802q-.222 0-.397-.076-.174-.079-.275-.232-.1-.153-.1-.374 0-.25.118-.388.12-.139.32-.203.203-.066.447-.095.203-.027.327-.06.126-.035.184-.089.058-.054.058-.138 0-.122-.083-.197-.08-.074-.252-.074-.19 0-.285.08-.095.081-.108.216h-.614q.009-.193.118-.362.11-.172.327-.277.219-.106.554-.106.215 0 .372.033.159.031.275.102.175.101.258.273.085.171.085.4v1.156q0 .132.02.209.021.076.065.105v.037h-.647q-.027-.039-.048-.11-.019-.07-.029-.164h-.008q-.112.155-.267.246-.155.088-.415.088zm.208-.436q.15 0 .259-.056.11-.057.17-.155.061-.099.061-.22v-.292q-.047.029-.111.051-.062.021-.133.04l-.144.035q-.147.03-.244.07-.095.04-.143.101-.045.06-.045.16 0 .097.043.157.046.058.12.084.076.025.167.025z" style="font-weight:700;font-size:4.23333px;font-family:&quot;Neue Haas Grotesk Text Pro&quot;;-inkscape-font-specification:&quot;Neue Haas Grotesk Text Pro Bold&quot;;fill:#fff;fill-opacity:1"/></g></svg>