<svg width="32" height="32" viewBox="0 0 8.467 8.467" xmlns="http://www.w3.org/2000/svg"><rect style="fill:#000;fill-opacity:.1;stroke-width:.264999;stroke-linecap:square" width="8.467" height="8.467" rx="1.058" ry="1.058"/><path d="M16 4.353v2.499a.35.35 0 0 1-.353.353H14.9c-.141 0-.283-.085-.325-.212l-.367-.875H11.06v8.174l.861.324c.141.057.24.184.24.34v.691c0 .198-.17.353-.353.353h-3.6a.359.359 0 0 1-.353-.353v-.692c0-.155.099-.282.226-.339l.861-.324V6.118H5.807l-.367.875a.357.357 0 0 1-.325.212h-.762A.359.359 0 0 1 4 6.852v-2.5C4 4.156 4.17 4 4.353 4h11.294a.35.35 0 0 1 .353.353" style="fill:#fff;fill-opacity:1" transform="translate(-.176 -.176) scale(.44097)" fill="#575e75" fill-rule="evenodd"/></svg>